# xmcd
#
# Track frame offsets: 
#        150
#        16395
#        30404
#        48082
#        65495
#        83778
#        107790
#        123976
#        137039
#        158233
#        176479
#        195111
#        209611
#        225122
#        242065
#        266493
#        281512
#
# Disc length: 3939 seconds
#
# Revision: 1
# Processed by: cddbd v1.5.2PL0 Copyright (c) Steve Scherf et al.
# Submitted via: ExactAudioCopy v0.99pb5
#
DISCID=d90f6111
DTITLE=Alison Krauss and Union Station - Paper Airplane (Target Deluxe E
DTITLE=dition)
DYEAR=2011
DGENRE=Bluegrass
TTITLE0=Paper Airplane
TTITLE1=Dust Bowl Children
TTITLE2=Lie Awake
TTITLE3=Lay My burden Down
TTITLE4=My Love Follows You Where You Go
TTITLE5=Dimming of the Day
TTITLE6=On the Outside Looking In
TTITLE7=Miles to Go
TTITLE8=Sinking Stone
TTITLE9=Bonita and Bill Butler
TTITLE10=My Opening Farewell
TTITLE11=These Days (Target Bonus Track)
TTITLE12=A Place Outside (Target Bonus Track)
TTITLE13=Frozen Fields (Target Bonus Track)
TTITLE14=We Hide and Seek ((Live) Target Bonus Track)
TTITLE15=Faraway Land ((Live) Target Bonus Track)
TTITLE16=Every Time You Say Goodbye ((Live) Target Bonus Track)
EXTD=
EXTT0=
EXTT1=
EXTT2=
EXTT3=
EXTT4=
EXTT5=
EXTT6=
EXTT7=
EXTT8=
EXTT9=
EXTT10=
EXTT11=
EXTT12=
EXTT13=
EXTT14=
EXTT15=
EXTT16=
PLAYORDER=
